<?xml version="1.0" standalone="no"?>
<!DOCTYPE svg PUBLIC "-//W3C//DTD SVG 20010904//EN"
 "http://www.w3.org/TR/2001/REC-SVG-20010904/DTD/svg10.dtd">
<svg version="1.0" xmlns="http://www.w3.org/2000/svg"
 width="522.000000pt" height="522.000000pt" viewBox="0 0 522.000000 522.000000"
 preserveAspectRatio="xMidYMid meet">
<metadata>
Created by potrace 1.14, written by Peter Selinger 2001-2017
</metadata>
<g transform="translate(0.000000,522.000000) scale(0.100000,-0.100000)"
fill="#000000" stroke="none">
<path d="M2050 4712 c-167 -12 -310 -51 -437 -117 -151 -79 -203 -117 -311
-229 -152 -159 -263 -370 -296 -568 -5 -29 -12 -38 -27 -38 -11 0 -59 -9 -107
-21 -101 -25 -254 -95 -364 -169 -78 -52 -210 -179 -271 -260 -91 -122 -187
-330 -203 -440 -3 -19 -10 -60 -16 -90 -16 -79 -13 -269 6 -383 60 -365 314
-694 666 -860 41 -20 126 -48 188 -63 l112 -28 0 -486 0 -485 685 0 685 0 0
967 0 968 720 0 c787 0 734 4 709 -57 -58 -142 -84 -183 -178 -278 -76 -78
-166 -133 -281 -172 -82 -28 -138 -33 -395 -36 l-160 -2 -1 -198 c-1 -127 2
-200 9 -204 13 -8 409 -7 462 1 174 27 272 57 390 121 310 167 529 464 589
801 7 41 12 147 12 250 l-1 179 -1142 3 -1143 2 0 -968 0 -967 -272 0 -273 0
-3 1023 -2 1022 -205 0 -205 0 0 -530 c0 -504 -1 -530 -18 -530 -10 0 -22 4
-27 8 -6 4 -28 14 -50 21 -84 29 -189 101 -268 184 -201 213 -263 512 -163
785 75 204 252 381 455 455 55 20 75 20 1681 22 1771 2 1649 -2 1845 57 273
81 539 320 668 600 79 172 100 283 99 540 0 79 0 150 -1 158 -1 13 -182 15
-1564 15 -859 0 -1578 -1 -1597 -3z m2726 -414 c14 -14 -74 -214 -112 -256
-86 -91 -134 -138 -164 -156 -59 -38 -144 -82 -170 -89 -14 -4 -50 -15 -80
-24 -49 -14 -199 -16 -1441 -17 l-1387 -2 4 21 c6 30 22 71 63 155 27 57 56
95 121 160 72 72 100 93 180 132 106 51 155 66 250 76 81 9 2727 9 2736 0z"/>
</g>
</svg>
